name C:/MyDriveSym/Projects/mobilecap/Data\Session20210910_0001\mocap\ForceDataProcessed\DJAsym3_forces.mot
datacolumns 28
datarows 6
range 2.21200000 2.21450000
endheader 
time	R_ground_force_vx	R_ground_force_vy	R_ground_force_vz	R_ground_force_px	R_ground_force_py	R_ground_force_pz	R_ground_torque_x	R_ground_torque_y	R_ground_torque_z	L_ground_force_vx	L_ground_force_vy	L_ground_force_vz	L_ground_force_px	L_ground_force_py	L_ground_force_pz	L_ground_torque_x	L_ground_torque_y	L_ground_torque_z	3_ground_force_vx	3_ground_force_vy	3_ground_force_vz	3_ground_force_px	3_ground_force_py	3_ground_force_pz	3_ground_torque_x	3_ground_torque_y	3_ground_torque_z	
          2.21200000	        -36.12734300	        507.79550900	        -21.81344700	         -0.09373400	          0.00600000	         -0.44584500	          0.00000000	         -8.09302200	          0.00000000	        -16.04369000	        263.53801700	         13.12475700	         -0.04417800	          0.00600000	         -0.75755600	          0.00000000	         -1.28387300	          0.00000000	          0.00000000	          0.00000000	          0.00000000	          0.00000000	          0.00000000	          0.00000000	          0.00000000	          0.00000000	          0.00000000	
          2.21250000	        -33.77288400	        495.69246100	        -20.25843400	         -0.09364100	          0.00600000	         -0.44562000	          0.00000000	         -8.01747200	          0.00000000	        -13.99990800	        251.09924700	         12.31048700	         -0.04351800	          0.00600000	         -0.75738200	          0.00000000	         -1.19504000	          0.00000000	          0.00000000	          0.00000000	          0.00000000	          0.00000000	          0.00000000	          0.00000000	          0.00000000	          0.00000000	          0.00000000	
          2.21300000	        -31.38715200	        483.44600400	        -18.72361900	         -0.09354900	          0.00600000	         -0.44539000	          0.00000000	         -7.93523200	          0.00000000	        -12.02247000	        238.79220500	         11.52657100	         -0.04282400	          0.00600000	         -0.75718700	          0.00000000	         -1.10936900	          0.00000000	          0.00000000	          0.00000000	          0.00000000	          0.00000000	          0.00000000	          0.00000000	          0.00000000	          0.00000000	          0.00000000	
          2.21350000	        -28.97311100	        471.06315700	        -17.21284000	         -0.09345800	          0.00600000	         -0.44515500	          0.00000000	         -7.84605300	          0.00000000	        -10.11683300	        226.63478500	         10.77354500	         -0.04209200	          0.00600000	         -0.75697000	          0.00000000	         -1.02686200	          0.00000000	          0.00000000	          0.00000000	          0.00000000	          0.00000000	          0.00000000	          0.00000000	          0.00000000	          0.00000000	          0.00000000	
          2.21400000	        -26.53416800	        458.55188900	        -15.72992600	         -0.09336900	          0.00600000	         -0.44491500	          0.00000000	         -7.74971300	          0.00000000	         -8.28825200	        214.64513900	         10.05181700	         -0.04131700	          0.00600000	         -0.75672900	          0.00000000	         -0.94750800	          0.00000000	          0.00000000	          0.00000000	          0.00000000	          0.00000000	          0.00000000	          0.00000000	          0.00000000	          0.00000000	          0.00000000	
          2.21450000	        -24.07421300	        445.92118800	        -14.27866800	         -0.09328200	          0.00600000	         -0.44466800	          0.00000000	         -7.64602200	          0.00000000	         -6.54171500	        202.84152700	          9.36167500	         -0.04049300	          0.00600000	         -0.75645800	          0.00000000	         -0.87128700	          0.00000000	          0.00000000	          0.00000000	          0.00000000	          0.00000000	          0.00000000	          0.00000000	          0.00000000	          0.00000000	          0.00000000	
